<svg width="242" height="204" viewBox="0 0 242 204" fill="none" xmlns="http://www.w3.org/2000/svg">
<g clip-path="url(#clip0_83_504)">
<mask id="mask0_83_504" style="mask-type:luminance" maskUnits="userSpaceOnUse" x="0" y="0" width="242" height="242">
<path d="M242 0H0V242H242V0Z" fill="black" fill-opacity="0.3765"/>
</mask>
<g mask="url(#mask0_83_504)">
<mask id="mask1_83_504" style="mask-type:luminance" maskUnits="userSpaceOnUse" x="104" y="76" width="49" height="48">
<path d="M152.998 76.6318H104.598V123.956H152.998V76.6318Z" fill="white"/>
</mask>
<g mask="url(#mask1_83_504)">
<mask id="mask2_83_504" style="mask-type:luminance" maskUnits="userSpaceOnUse" x="105" y="76" width="48" height="48">
<path d="M105.028 76.8242H152.912V123.804H105.028V76.8242Z" fill="white"/>
</mask>
<g mask="url(#mask2_83_504)">
<path d="M141.375 117.032C144.597 114.61 147.385 111.631 149.675 108.321C151.947 105.033 153.781 100.905 152.468 97.1365C151.674 94.8594 149.847 93.0948 148.75 90.9479C147.065 87.6519 147.105 83.4862 144.62 80.7406C142.812 78.7407 140.039 77.9425 137.388 77.4047C133.785 76.6737 129.657 76.3775 126.8 78.6819C124.153 80.8183 123.462 84.4798 121.933 87.5111C120.046 91.2504 117.168 91.534 113.622 92.5066C93.6847 97.9705 111.221 139.682 141.375 117.032Z" fill="#DFC0CB"/>
</g>
</g>
</g>
<mask id="mask3_83_504" style="mask-type:luminance" maskUnits="userSpaceOnUse" x="85" y="80" width="69" height="56">
<path d="M85.2377 80.5449H153.743V135.789H85.2377V80.5449Z" fill="white"/>
</mask>
<g mask="url(#mask3_83_504)">
<path d="M151.578 101.623C150.88 102.422 150.16 103.197 149.416 103.951C147.906 105.482 146.301 106.921 144.62 108.264C141.549 110.715 138.236 112.782 134.762 114.593C136.112 113.538 137.171 112.289 138.104 110.745C139.791 107.951 140.868 104.774 141.253 101.527C142.165 100.941 143.108 100.424 144.162 100.144C145.101 99.8944 146.078 99.7537 147.034 99.5898C148.061 99.4134 149.097 99.2747 150.139 99.2369C150.487 99.2222 153.248 99.4407 153.355 99.5331C152.712 100.172 152.174 100.943 151.578 101.623ZM149.864 105.071C148.586 106.799 147.406 108.589 145.841 110.079C143.127 112.658 139.793 114.324 136.499 116.024C135.089 115.919 133.659 115.988 132.298 116.168C132.701 115.95 133.102 115.721 133.493 115.479C133.734 115.33 133.97 115.175 134.194 115.017C137.978 113.347 141.545 111.131 144.786 108.568C146.383 107.304 147.906 105.949 149.349 104.514C150.099 103.766 150.828 102.999 151.534 102.209C151.92 101.777 152.349 101.331 152.748 100.867C151.901 102.342 150.874 103.703 149.864 105.071ZM141.921 117.948C143.227 118.757 144.311 119.885 145.328 121.023C145.526 121.244 146.007 121.622 146.095 121.901C146.345 122.697 145.589 122.847 145.12 123.063C144.353 123.414 143.576 123.748 142.795 124.065C141.236 124.702 139.654 125.283 138.077 125.869C136.558 126.435 135.049 127.063 133.47 127.426C131.932 127.779 130.352 128.067 128.791 128.287C127.124 128.523 125.088 128.428 124.052 126.914C124.227 125.174 124.008 123.393 123.323 121.813C123.216 121.513 123.082 121.227 122.91 120.971C122.907 120.969 122.907 120.966 122.905 120.964C122.903 120.96 122.899 120.958 122.897 120.954C122.828 120.857 122.758 120.761 122.676 120.672C124.34 120.647 125.96 120.231 127.142 118.96C127.319 118.771 127.483 118.565 127.64 118.351C128.365 117.603 129.777 117.383 130.705 116.963C131.052 116.805 131.392 116.639 131.73 116.467C135.031 115.982 139.011 116.145 141.921 117.948ZM122.765 130.243C122.187 131.554 121.336 132.762 120.214 133.663C119.097 134.562 117.874 134.972 116.517 135.184C116.66 135.087 116.79 134.982 116.895 134.913C117.513 134.497 118.093 134.031 118.647 133.533C120.431 131.922 122.393 130.018 123.229 127.718C123.487 127.01 123.653 126.269 123.727 125.519C123.727 125.531 123.729 125.544 123.729 125.556C123.737 127.157 123.412 128.777 122.765 130.243ZM116.368 134.863C115.248 135.342 113.61 133.06 113.036 132.241C112.158 130.985 111.654 129.588 111.583 128.054C111.513 126.521 111.242 125.107 111.767 123.62C112.249 122.252 113.001 121.015 113.942 119.916C114.662 119.872 115.374 119.727 116.068 119.506C116.387 119.418 116.712 119.305 117.013 119.16C117.175 119.093 117.339 119.023 117.498 118.95C117.553 118.925 117.717 118.717 117.807 118.62C117.813 118.614 117.82 118.607 117.826 118.601C117.845 118.58 117.862 118.565 117.883 118.542C117.887 118.536 117.889 118.532 117.893 118.525C117.948 118.462 118 118.399 118.044 118.332C118.25 119.723 120.166 120.517 121.42 120.624C121.716 120.649 122.013 120.666 122.309 120.672C122.513 120.847 122.678 121.061 122.817 121.3C122.991 121.782 123.155 122.256 123.292 122.733C123.424 123.5 123.424 124.302 123.389 124.935C123.315 126.243 122.981 127.495 122.376 128.657C121.695 129.966 120.643 131.048 119.624 132.098C119.08 132.659 118.515 133.203 117.916 133.707C117.456 134.094 116.923 134.625 116.368 134.863ZM111.148 126.231C108.478 127.458 105.663 128.497 102.705 128.659C99.7347 128.819 96.8021 128.13 94.3443 126.426C93.191 125.626 92.0608 124.796 90.9181 123.983C90.3425 123.571 89.7354 123.162 89.2753 122.616C89.0085 122.298 88.7901 122.042 88.9161 121.607C89.0337 121.21 89.3404 120.801 89.5799 120.46C91.2164 118.133 93.9347 116.895 96.5878 116.131C99.6675 115.244 103.451 114.078 106.482 115.635C106.972 116.332 107.524 116.981 108.167 117.534C109.368 118.574 110.77 119.572 112.364 119.841C112.797 119.914 113.227 119.939 113.654 119.931C112.866 120.809 112.211 121.788 111.738 122.874C111.234 124.029 111.085 125.044 111.148 126.231ZM96.695 112.866C94.6321 111.818 92.815 110.371 91.3256 108.6C89.8656 106.858 88.5926 104.894 87.4561 102.928C86.849 101.88 86.3133 100.781 85.9751 99.6108C85.7945 98.9827 85.6621 98.3399 85.6096 97.6866C85.5802 97.34 85.4689 96.3947 85.6453 95.9073C85.7504 98.0563 86.9646 99.9931 88.1662 101.714C89.6198 103.789 91.3109 105.701 93.0062 107.581C94.6216 109.375 96.8798 110.303 98.9763 111.421C101.39 112.709 103.804 114.001 106.232 115.263C106.238 115.274 106.245 115.284 106.251 115.293C105.1 114.751 103.869 114.597 102.621 114.656C100.541 114.324 98.5919 113.83 96.695 112.866ZM95.2077 96.966C98.1382 97.6719 100.594 99.0478 102.506 101.405C102.51 101.409 102.514 101.411 102.518 101.415C102.623 104.281 103.86 106.913 105.556 109.224C105.066 108.934 104.575 108.646 104.071 108.377C104.014 108.253 103.755 108.238 103.726 108.383C103.365 110.123 104.47 112.043 105.239 113.543C105.499 114.055 105.791 114.559 106.102 115.053C104.152 113.835 102.071 112.805 100.05 111.715C97.7957 110.501 95.1489 109.476 93.399 107.562C91.8088 105.823 90.2858 103.987 88.8993 102.081C87.5191 100.178 86.2272 98.1445 86.034 95.7539C89.0926 95.9535 92.2268 96.2455 95.2077 96.966ZM96.5122 93.8759C96.445 92.7542 96.4618 91.6261 96.5668 90.5064C96.6761 89.3468 96.8756 88.1956 97.1655 87.0676C97.2979 86.5508 97.4512 86.0361 97.6214 85.5299C97.7705 85.0845 97.7432 84.824 98.3209 84.7799C98.552 84.761 98.8314 84.8576 99.0541 84.9018C101.321 85.3597 103.092 86.5592 104.921 87.9037C106.661 89.183 108.69 90.4959 109.263 92.7163C109.27 92.7437 109.293 92.7605 109.32 92.7689C108.971 93.5251 108.732 94.3297 108.644 95.1721C107.978 93.8717 107.308 92.5819 106.684 91.3005C106.631 91.1933 106.461 91.1765 106.385 91.2711C104.327 93.8822 102.768 96.8988 102.533 100.27C102.518 100.516 102.512 100.758 102.512 101.001C101.085 99.1592 99.2305 97.9702 97.1697 97.1845C96.5941 96.2329 96.5752 94.9515 96.5122 93.8759ZM112.87 82.3683C113.061 82.0721 113.251 81.7717 113.482 81.5049C113.992 80.9167 114.204 81.0155 114.801 81.36C115.498 81.7654 116.198 82.1709 116.895 82.5742C118.294 83.3851 119.822 84.1854 120.525 85.721C119.761 86.6558 118.977 87.7629 118.843 88.8721C118.357 88.5885 117.788 88.2125 117.236 88.2545C116.712 88.2944 116.339 88.7544 115.971 89.0821C115.937 89.1115 115.904 89.1431 115.868 89.1725C115.475 88.6032 114.95 87.9247 114.177 87.9793C113.221 88.0444 112.236 89.0758 111.587 89.6892C110.711 90.5127 109.955 91.4811 109.423 92.5525C109.358 92.2899 109.272 92.0441 109.171 91.8046C109.266 88.2398 110.965 85.2862 112.87 82.3683ZM121.714 84.8366C122.286 84.1833 122.899 83.5636 123.548 82.988C123.777 82.7864 124.157 82.3221 124.449 82.236C125.065 82.0511 125.304 82.9901 125.456 83.4166C126.308 85.8345 126.754 88.4372 126.67 91.0106C126.663 91.0274 126.655 91.04 126.649 91.0547C126.636 91.082 126.649 91.0967 126.668 91.1093C126.63 92.0735 126.523 93.0314 126.329 93.9768C125.872 92.1912 124.643 90.8026 122.842 90.2102C122.76 90.1829 122.601 90.2102 122.636 90.3321C122.853 91.0925 123.048 91.8404 123.199 92.5945C122.727 91.6492 121.926 90.8614 121.086 90.2375C120.441 89.7607 119.744 89.3573 119.038 88.9813C119.038 88.9813 119.038 88.9813 119.038 88.9792C119.685 87.4373 120.618 86.0971 121.714 84.8366ZM126.901 90.9013C128.743 87.5528 131.829 85.2295 134.898 83.0637C135.516 84.8093 135.564 86.5403 135.432 88.3847C135.285 90.3993 135.117 92.4117 134.989 94.4284C134.751 98.1781 134.024 101.632 132.497 105.033C131.489 106.028 130.558 107.098 129.844 108.316C130.497 105.713 130.558 103.098 129.842 100.487C129.468 99.1193 129.178 97.7307 128.8 96.3652C128.493 95.2624 128.037 94.2709 127.218 93.46C127.163 93.4054 127.063 93.4327 127.016 93.481C126.85 93.6554 126.691 93.8381 126.531 94.0209C126.756 92.9915 126.871 91.9496 126.901 90.9013ZM136.816 92.2353C136.86 95.4409 136.436 98.5878 136.259 101.777C135.594 102.27 134.976 102.758 134.497 103.184C133.989 103.636 133.478 104.096 132.98 104.568C134.417 101.35 134.928 97.9492 135.247 94.4284C135.434 92.3571 135.581 90.2837 135.749 88.2125C135.867 86.7714 135.867 85.408 135.56 84.0489C136.638 86.6117 136.776 89.454 136.816 92.2353ZM140.971 98.7831C140.293 100.273 139.547 101.674 138.604 103.024C137.547 104.537 136.407 105.991 135.31 107.476C133.136 110.421 130.943 113.351 128.785 116.309C129.262 115.179 129.577 113.967 129.756 112.851C129.934 111.734 130.008 110.219 129.724 108.873C130.462 107.722 132.556 105.455 132.613 105.344C133.323 104.625 134.071 103.938 134.837 103.26C135.306 102.844 139.364 99.6486 140.971 98.7831ZM118.418 117.794C118.693 117.368 118.954 116.927 119.25 116.524C120.219 115.215 121.649 114.372 122.735 113.165C123.825 111.957 124.884 110.778 126.086 109.682C126.231 109.551 128.033 107.656 128.441 106.741C129.655 107.993 129.731 110.427 129.598 112.039C129.449 113.847 128.834 115.759 127.97 117.355C126.985 119.181 125.479 120.269 123.38 120.37C122.485 120.412 121.508 120.473 120.643 120.214C119.635 119.91 118.16 119.103 118.42 117.836C118.422 117.82 118.42 117.807 118.418 117.794ZM115.372 114.265C114.809 113.925 114.232 113.601 113.65 113.282C113.122 110.633 113.072 107.959 113.732 105.323C114.429 102.537 115.956 100.237 117.832 98.1067C118.04 97.8693 118.252 97.6362 118.464 97.4009C118.683 97.1614 119.206 96.3842 119.49 96.3001C120.342 96.0522 120.809 96.9787 121.216 97.5521C122.042 98.7054 122.826 99.8965 123.544 101.119C124.252 102.331 124.878 103.587 125.403 104.89C125.953 106.249 126.195 107.612 126.437 109.045C126.201 109.276 125.958 109.501 125.71 109.724C124.746 110.602 123.872 111.52 123.019 112.507C122.502 113.101 121.981 113.692 121.393 114.219C120.918 114.645 120.38 114.994 119.92 115.437C119.462 115.879 119.078 116.389 118.727 116.918C118.599 117.112 118.458 117.383 118.299 117.662C118.286 117.658 118.273 117.654 118.261 117.652C118.324 116.156 116.473 114.931 115.372 114.265ZM112.828 113.312C114.271 114.078 115.834 114.784 116.981 115.982C117.229 116.24 117.475 116.524 117.656 116.834C118.084 117.574 117.824 118.259 117.145 118.654C116.427 119.072 115.593 119.229 114.834 119.553C114.822 119.557 114.816 119.563 114.807 119.57C113.94 119.704 113.057 119.71 112.181 119.511C110.635 119.16 109.156 118.065 108.037 116.965C106.94 115.889 106.201 114.576 105.558 113.194C104.85 111.679 104.209 110.234 104.098 108.553C106.808 110.486 109.894 111.753 112.828 113.312ZM110.656 99.9637C111.938 102.785 112.429 105.703 112.866 108.74C112.839 110.23 113.019 111.726 113.414 113.154C112.249 112.524 111.064 111.923 109.894 111.326C108.925 110.831 107.873 110.528 106.923 110.009C106.602 109.835 106.287 109.65 105.972 109.467C104.077 106.772 102.659 103.625 102.907 100.27C103.142 97.0858 104.648 94.1637 106.503 91.6219C107.938 94.3675 109.377 97.1446 110.656 99.9637ZM114.043 90.853C113.013 91.8971 112.15 93.0546 111.788 94.4914C110.936 95.4577 110.301 96.6215 109.99 97.8672C109.591 97.0333 109.175 96.2077 108.755 95.3863C109.039 93.7184 109.709 92.1996 110.789 90.8782C111.341 90.2039 111.975 89.6031 112.662 89.0674C112.988 88.8112 113.398 88.4372 113.788 88.2965C114.744 87.952 115.234 88.6872 115.65 89.288C115.662 89.3048 115.679 89.3153 115.698 89.3237C115.135 89.8216 114.572 90.3173 114.043 90.853ZM123.475 94.628C123.097 93.502 122.447 92.4475 121.487 91.7731C121.034 91.4559 120.101 90.8971 119.511 91.0526C119.076 91.166 118.792 92.0588 118.668 92.4895C118.032 91.8467 117.24 91.3635 116.332 91.0988C116.284 91.0862 116.231 91.1072 116.2 91.1408C115.305 92.1344 114.687 93.3192 114.479 94.6406C114.32 94.0608 114.164 93.481 114.019 92.8991C114.001 92.8193 113.864 92.7962 113.803 92.8319C113.171 93.1995 112.587 93.6596 112.072 94.1868C112.45 93.126 113.091 92.2101 113.862 91.3803C114.332 90.874 114.845 90.4056 115.362 89.9434C115.79 89.5611 116.309 88.9162 116.828 88.6536C117.588 88.265 118.401 88.8973 119.027 89.2355C119.712 89.6073 120.387 90.0043 121.004 90.4791C122.042 91.2753 122.771 92.229 123.338 93.376C123.401 93.7877 123.449 94.2057 123.475 94.628ZM124.298 97.2959C124.22 96.8064 124.063 96.3211 123.79 95.9178C123.752 95.6783 123.702 95.4388 123.641 95.1994C123.783 93.6175 123.384 92.021 122.968 90.498C124.605 91.1555 125.88 92.605 126.25 94.3423C125.496 95.2477 124.834 96.2413 124.298 97.2959ZM126.411 94.5355C126.424 94.5271 126.432 94.5166 126.437 94.5019C126.655 94.2309 126.884 93.9642 127.128 93.7037C128.739 95.4683 128.888 98.1992 129.539 100.401C130.304 102.993 130.382 105.785 129.602 108.381C129.382 107.623 129.029 106.946 128.489 106.463C128.428 106.409 128.304 106.43 128.273 106.507C127.913 107.406 127.338 108.131 126.682 108.799C126.502 106.524 125.535 104.203 124.491 102.224C124.143 101.562 123.767 100.913 123.374 100.277C124.071 98.1634 125.031 96.2413 126.411 94.5355ZM114.828 96.7959C115.2 98.1298 115.4 99.3167 115.353 100.67C114.337 102.235 113.591 103.947 113.196 105.799C113.095 106.272 113.024 106.751 112.969 107.232C112.641 104.054 111.499 101.056 110.125 98.1508C110.795 96.0627 111.999 94.4053 113.793 93.1491C114.158 94.357 114.49 95.5796 114.828 96.7959ZM118.769 92.5945C118.904 92.2857 119.051 91.8004 119.292 91.5673C119.775 91.0946 120.168 91.3089 120.651 91.5294C121.321 91.8362 121.882 92.3025 122.326 92.8907C122.931 93.689 123.231 94.5986 123.5 95.5355C123.5 95.546 123.5 95.5586 123.5 95.5691C123.367 95.4388 123.216 95.3233 123.044 95.2288C122.735 95.0628 122.376 94.9683 122.023 94.9872C121.823 94.9956 121.376 95.233 121.218 95.1889C120.975 95.1237 120.716 94.6742 120.433 94.546C120.265 94.4683 120.08 94.42 119.895 94.3969C119.637 93.7121 119.248 93.1071 118.769 92.5945ZM119.637 94.3864C119.567 94.3885 119.5 94.3927 119.433 94.4032C118.759 94.5124 118.254 95.0124 118.072 95.6426C117.612 95.0628 116.969 94.4788 116.202 94.8675C115.477 95.2351 115.202 96.1615 115.122 96.9871C114.935 96.2854 114.738 95.5838 114.547 94.8843C114.765 93.9116 115.528 91.0778 116.826 91.4643C118.126 91.853 119.162 93.1701 119.637 94.3864ZM115.227 97.382C115.29 96.8778 115.383 96.3694 115.593 95.9052C115.874 95.2855 116.345 94.5187 117.391 95.191C117.649 95.3569 117.857 95.6972 118.032 95.943C118.076 96.0039 118.223 96.0081 118.244 95.922C118.597 94.5082 120.321 94.149 121.055 95.4725C121.092 95.5418 121.21 95.5334 121.263 95.4935C122.149 94.8275 123.225 95.3884 123.706 96.2455C123.941 96.6656 124.061 97.1131 124.162 97.5773C123.777 98.3756 123.462 99.2054 123.241 100.06C123.059 99.7684 122.874 99.4764 122.687 99.1886C122.004 98.1466 121.303 96.8127 120.332 96.0123C119.822 95.5901 119.435 95.9304 119.011 96.3316C118.061 97.2307 117.173 98.2517 116.357 99.2726C116.08 99.6213 115.822 99.9805 115.572 100.346C115.696 99.3692 115.469 98.3168 115.227 97.382ZM141.19 99.1781C140.99 103.424 139.77 107.516 137.472 111.11C136.142 113.194 134.478 114.61 132.325 115.805C131.371 116.334 130.384 116.79 129.373 117.206C128.89 117.406 128.39 117.574 127.974 117.866C128.165 117.57 128.342 117.259 128.499 116.937C128.504 116.935 128.508 116.935 128.51 116.931C130.97 113.751 133.384 110.532 135.812 107.329C136.917 105.871 138.039 104.417 139.074 102.911C139.868 101.758 140.679 100.506 141.19 99.1781ZM153.714 99.4302C153.712 99.3818 153.674 99.3377 153.613 99.323C151.418 98.7958 149.158 98.9911 146.956 99.3713C145.9 99.5541 144.803 99.739 143.776 100.058C142.864 100.344 142.049 100.846 141.27 101.39C141.375 100.453 141.425 99.5121 141.412 98.5731C141.412 98.5647 141.406 98.5626 141.404 98.5563C141.408 98.5416 141.436 98.216 141.125 98.4491C141.116 98.4554 138.677 100.006 136.564 101.552C137.079 98.2895 137.198 94.8485 137.106 91.561C137.03 88.7922 136.993 85.4038 135.281 83.0742C135.245 82.9712 134.959 82.6372 134.869 82.7002C131.814 84.8492 128.644 87.1432 126.907 90.5295C126.916 89.4918 126.84 88.4519 126.691 87.4184C126.533 86.3281 126.317 85.2442 126.019 84.1875C125.79 83.3746 125.542 82.3452 124.874 81.7717C124.815 81.7213 124.718 81.7213 124.649 81.7507C123.983 82.028 123.372 82.6939 122.851 83.1813C122.269 83.7275 121.716 84.3052 121.202 84.9144C121.057 85.0866 120.901 85.2673 120.742 85.4584C120.156 84.1497 118.908 83.3683 117.696 82.6582C116.702 82.0742 115.713 81.4755 114.704 80.9167C114.082 80.5722 113.853 80.6058 113.324 81.1352C112.675 81.7864 112.213 82.6813 111.732 83.4565C111.209 84.301 110.717 85.1622 110.293 86.0613C109.499 87.7419 108.923 89.5842 109.011 91.4559C108.089 89.6388 106.192 88.4771 104.564 87.2818C102.489 85.7546 100.371 84.7064 97.7768 84.4501C97.7096 84.4438 97.6298 84.4879 97.6046 84.5509C96.7748 86.7168 96.2727 88.9897 96.1404 91.3089C96.0711 92.4832 96.0984 93.6638 96.2202 94.8359C96.3 95.6006 96.382 96.3737 96.7559 97.0333C93.3108 95.8254 89.3404 95.6657 85.8281 95.4451C85.1727 95.4052 85.284 97.5752 85.3512 98.1445C85.5004 99.4302 85.9352 100.657 86.5024 101.814C87.6284 104.117 89.1283 106.371 90.7311 108.367C93.4263 111.73 97.51 114.272 101.861 114.717C100.508 114.862 99.1486 115.208 97.8672 115.528C94.9913 116.246 92.0756 117.265 90.0253 119.513C89.4875 120.103 88.2649 121.389 88.6997 122.263C89.3594 123.588 91.1365 124.464 92.2898 125.29C93.6049 126.233 94.8884 127.216 96.3925 127.844C97.7369 128.407 99.1759 128.737 100.625 128.855C104.278 129.151 107.948 128.124 111.165 126.443C111.171 126.542 111.177 126.636 111.186 126.737C111.314 128.061 111.27 129.302 111.77 130.56C112.221 131.695 112.927 132.707 113.759 133.594C114.131 133.989 114.526 134.363 114.931 134.72C115.168 134.93 115.515 135.35 115.864 135.411C115.874 135.415 115.881 135.423 115.893 135.426C118.88 135.793 121.574 133.432 122.868 130.947C123.464 129.802 123.857 128.51 124.021 127.185C125.353 129.186 128.09 128.773 130.212 128.392C131.737 128.119 133.289 127.895 134.772 127.437C136.173 127.004 137.539 126.441 138.911 125.926C140.49 125.332 142.07 124.737 143.627 124.08C144.351 123.775 145.076 123.462 145.786 123.12C146.105 122.966 146.652 122.765 146.694 122.336C146.734 121.929 146.278 121.582 146.038 121.315C145.572 120.798 145.103 120.282 144.612 119.79C143.652 118.826 142.591 117.937 141.379 117.309C139.965 116.578 138.377 116.194 136.755 116.047C140.192 114.566 143.603 112.694 146.288 110.06C147.769 108.608 148.952 106.89 150.13 105.192C151.328 103.466 152.622 101.781 153.544 99.886C153.559 99.8587 153.662 99.6297 153.714 99.5331C153.737 99.4932 153.731 99.4575 153.714 99.4302Z" fill="#F5F5F5"/>
</g>
<path d="M69.6404 160.489H69.7749L72.3146 153.818H72.3944L74.9237 160.489H75.0686L77.8016 152.452H77.2491L75.0245 159.034H74.9447L72.428 152.328H72.2705L69.7517 159.034H69.6845L67.4599 152.452H66.9074L69.6404 160.489Z" fill="#F5F5F5"/>
<path d="M78.8832 160.356H84.7652V159.86H79.4021V156.552H83.8514V156.1H79.4021V152.951H84.6286V152.453H78.8832V160.356Z" fill="#F5F5F5"/>
<path d="M86.2875 160.356H91.8985V159.86H86.819V152.453H86.2875V160.356Z" fill="#F5F5F5"/>
<path d="M93.2291 160.356H98.8401V159.86H93.7606V152.453H93.2291V160.356Z" fill="#F5F5F5"/>
<path d="M100.171 160.356H103.918C105.443 160.356 106.561 159.463 106.561 158.234C106.561 157.264 105.895 156.505 104.889 156.224V156.167C105.645 155.863 106.13 155.23 106.13 154.417C106.13 153.243 105.149 152.453 103.771 152.453H100.171V160.356ZM100.702 156.089V152.938H103.714C104.811 152.938 105.611 153.537 105.611 154.497C105.611 155.445 104.811 156.089 103.714 156.089H100.702ZM100.702 159.871V156.528H103.874C105.126 156.528 106.029 157.173 106.029 158.178C106.029 159.192 105.126 159.871 103.874 159.871H100.702Z" fill="#F5F5F5"/>
<path d="M108.105 160.356H113.987V159.86H108.624V156.552H113.073V156.1H108.624V152.951H113.851V152.453H108.105V160.356Z" fill="#F5F5F5"/>
<path d="M115.51 160.356H116.041V152.453H115.51V160.356Z" fill="#F5F5F5"/>
<path d="M124.257 160.489H124.451V152.452H123.932V159.17H123.862L118.037 152.328H117.846V160.355H118.365V153.637H118.445L124.257 160.489Z" fill="#F5F5F5"/>
<path d="M129.879 160.489C131.9 160.489 133.525 158.977 133.639 156.685H134.553V156.223H130.116V156.685H133.118C133.007 158.628 131.595 159.994 129.879 159.994C127.982 159.994 126.492 158.605 126.492 156.517C126.492 154.483 128.005 152.824 129.992 152.824C131.154 152.824 132.147 153.311 132.679 153.897L133.051 153.479C132.465 152.86 131.595 152.328 129.992 152.328C127.711 152.328 125.973 154.202 125.973 156.517C125.973 158.899 127.688 160.489 129.879 160.489Z" fill="#F5F5F5"/>
<path d="M141.415 160.356H141.933V157.138L145.297 152.453H144.677L141.707 156.541H141.639L138.692 152.453H138.06L141.415 157.127V160.356Z" fill="#F5F5F5"/>
<path d="M149.992 160.489C152.273 160.489 153.943 158.796 153.943 156.414C153.943 154.034 152.273 152.328 149.992 152.328C147.723 152.328 146.053 154.034 146.053 156.414C146.053 158.796 147.723 160.489 149.992 160.489ZM149.992 159.994C148.017 159.994 146.572 158.504 146.572 156.414C146.572 154.326 148.017 152.824 149.992 152.824C151.979 152.824 153.424 154.326 153.424 156.414C153.424 158.504 151.979 159.994 149.992 159.994Z" fill="#F5F5F5"/>
<path d="M159.089 160.489C161.11 160.489 162.736 158.977 162.85 156.685H163.764V156.223H159.327V156.685H162.329C162.217 158.628 160.806 159.994 159.089 159.994C157.193 159.994 155.703 158.605 155.703 156.517C155.703 154.483 157.216 152.824 159.203 152.824C160.365 152.824 161.358 153.311 161.89 153.897L162.262 153.479C161.675 152.86 160.806 152.328 159.203 152.328C156.922 152.328 155.184 154.202 155.184 156.517C155.184 158.899 156.898 160.489 159.089 160.489Z" fill="#F5F5F5"/>
<path d="M164.223 160.355H164.822L165.557 158.729H170.569L171.313 160.355H171.901L168.141 152.328H167.983L164.223 160.355ZM165.771 158.29L168.03 153.355H168.097L170.366 158.29H165.771Z" fill="#F5F5F5"/>
<path d="M101.965 179.541L99.9899 184.381H99.3681L98.7883 180.457L97.091 184.381H96.4608L95.8642 179.541H96.6456L97.0069 183.49H97.0153L98.7211 179.541H99.2673L99.9227 183.49L101.418 179.541H101.965Z" fill="#F5F5F5"/>
<path d="M103.141 177.832C103.219 177.765 103.317 177.731 103.435 177.731C103.553 177.731 103.645 177.763 103.712 177.824C103.763 177.881 103.788 177.965 103.788 178.076C103.788 178.217 103.731 178.343 103.62 178.454C103.519 178.528 103.414 178.563 103.309 178.563C103.195 178.563 103.109 178.528 103.048 178.454C102.992 178.383 102.964 178.299 102.964 178.202C102.964 178.131 102.977 178.063 103.006 178C103.034 177.933 103.078 177.878 103.141 177.832ZM102.847 184.378H102.149L102.83 179.538H103.527L102.847 184.378Z" fill="#F5F5F5"/>
<path d="M105.783 180.011L105.371 182.91C105.348 183.09 105.338 183.262 105.338 183.431C105.338 183.645 105.371 183.796 105.439 183.884C105.506 183.968 105.611 184.01 105.758 184.01C105.92 184.01 106.069 183.998 106.203 183.968C106.342 183.935 106.413 183.916 106.413 183.909L106.396 184.296C106.384 184.309 106.342 184.328 106.27 184.355C106.203 184.382 106.098 184.409 105.959 184.439C105.825 184.466 105.665 184.481 105.481 184.481C105.182 184.481 104.962 184.407 104.817 184.262C104.676 184.117 104.607 183.88 104.607 183.548C104.607 183.393 104.619 183.237 104.649 183.086L105.077 180.011H104.573L104.64 179.607L105.144 179.548L105.623 178.011H106.06L105.85 179.54H107.085L107.018 180.011H105.783Z" fill="#F5F5F5"/>
<path d="M109.164 177.104L108.76 179.969H108.777C108.777 179.952 108.838 179.9 108.962 179.809C109.084 179.721 109.252 179.637 109.466 179.557C109.678 179.479 109.928 179.439 110.214 179.439C110.621 179.439 110.939 179.54 111.163 179.742C111.392 179.944 111.508 180.244 111.508 180.641C111.508 180.755 111.499 180.874 111.483 181.002L111.012 184.38H110.306L110.76 181.086C110.777 181.019 110.785 180.916 110.785 180.776C110.785 180.496 110.712 180.292 110.567 180.162C110.426 180.028 110.214 179.96 109.928 179.96C109.609 179.96 109.344 180.019 109.138 180.137C108.93 180.25 108.781 180.351 108.693 180.439L108.138 184.38H107.441L108.449 177.137L109.164 177.104Z" fill="#F5F5F5"/>
<path d="M119.603 179.009C119.603 178.999 119.515 178.948 119.342 178.858C119.168 178.764 118.96 178.677 118.721 178.598C118.485 178.52 118.242 178.48 117.99 178.48C117.53 178.48 117.116 178.612 116.746 178.875C116.376 179.14 116.078 179.528 115.855 180.043C115.637 180.553 115.528 181.173 115.528 181.9C115.528 182.572 115.691 183.091 116.023 183.454C116.359 183.814 116.807 183.992 117.368 183.992C117.708 183.992 118.015 183.923 118.284 183.782C118.553 183.643 118.765 183.492 118.922 183.328C119.078 183.167 119.158 183.074 119.158 183.051L119.384 183.362C119.384 183.396 119.292 183.509 119.107 183.698C118.926 183.889 118.674 184.068 118.351 184.236C118.032 184.398 117.653 184.48 117.216 184.48C116.454 184.48 115.851 184.251 115.41 183.79C114.973 183.326 114.754 182.69 114.754 181.883C114.754 181.127 114.891 180.455 115.166 179.866C115.439 179.278 115.822 178.822 116.309 178.497C116.801 178.167 117.359 178.001 117.981 178.001C118.277 178.001 118.555 178.043 118.813 178.127C119.076 178.207 119.294 178.293 119.468 178.388C119.647 178.484 119.737 178.539 119.737 178.556L119.603 179.009Z" fill="#F5F5F5"/>
<path d="M121.865 177.104L121.462 179.969H121.478C121.478 179.952 121.539 179.9 121.663 179.809C121.785 179.721 121.953 179.637 122.167 179.557C122.38 179.479 122.63 179.439 122.915 179.439C123.323 179.439 123.64 179.54 123.865 179.742C124.094 179.944 124.209 180.244 124.209 180.641C124.209 180.755 124.201 180.874 124.184 181.002L123.714 184.38H123.008L123.462 181.086C123.478 181.019 123.487 180.916 123.487 180.776C123.487 180.496 123.413 180.292 123.268 180.162C123.128 180.028 122.915 179.96 122.63 179.96C122.31 179.96 122.046 180.019 121.84 180.137C121.632 180.25 121.483 180.351 121.394 180.439L120.84 184.38H120.142L121.151 177.137L121.865 177.104Z" fill="#F5F5F5"/>
<path d="M127.992 180.128C127.941 180.111 127.832 180.083 127.664 180.043C127.5 180.006 127.355 179.985 127.227 179.985C127.047 179.985 126.887 180.048 126.748 180.17C126.607 180.293 126.496 180.426 126.412 180.564C126.332 180.705 126.286 180.812 126.269 180.884V180.892L125.773 184.379H125.076L125.757 179.539H126.269L126.236 180.539C126.236 180.506 126.28 180.396 126.37 180.212C126.465 180.022 126.593 179.846 126.757 179.682C126.918 179.52 127.118 179.438 127.353 179.438C127.475 179.438 127.622 179.462 127.79 179.506C127.958 179.546 128.067 179.577 128.118 179.598L127.992 180.128Z" fill="#F5F5F5"/>
<path d="M129.241 177.832C129.318 177.765 129.417 177.731 129.535 177.731C129.652 177.731 129.745 177.763 129.812 177.824C129.862 177.881 129.888 177.965 129.888 178.076C129.888 178.217 129.831 178.343 129.72 178.454C129.619 178.528 129.514 178.563 129.409 178.563C129.295 178.563 129.209 178.528 129.148 178.454C129.091 178.383 129.064 178.299 129.064 178.202C129.064 178.131 129.077 178.063 129.106 178C129.133 177.933 129.178 177.878 129.241 177.832ZM128.946 184.378H128.249L128.93 179.538H129.627L128.946 184.378Z" fill="#F5F5F5"/>
<path d="M130.421 183.438C130.421 183.461 130.463 183.526 130.547 183.631C130.635 183.732 130.761 183.829 130.925 183.917C131.093 184.007 131.294 184.052 131.53 184.052C131.933 184.052 132.238 183.949 132.446 183.741C132.652 183.535 132.757 183.287 132.757 183.001C132.757 182.846 132.715 182.713 132.631 182.606C132.551 182.501 132.45 182.417 132.328 182.354C132.21 182.293 132.044 182.218 131.832 182.127C131.591 182.027 131.395 181.934 131.244 181.85C131.093 181.766 130.963 181.653 130.858 181.506C130.757 181.354 130.706 181.165 130.706 180.934C130.706 180.476 130.879 180.111 131.227 179.842C131.574 179.573 132.009 179.438 132.53 179.438C132.736 179.438 132.929 179.47 133.109 179.531C133.288 179.594 133.437 179.663 133.555 179.741C133.672 179.815 133.731 179.854 133.731 179.859L133.605 180.279C133.576 180.258 133.513 180.212 133.412 180.144C133.311 180.077 133.181 180.014 133.025 179.951C132.868 179.884 132.702 179.85 132.53 179.85C132.194 179.85 131.92 179.938 131.715 180.111C131.507 180.279 131.404 180.493 131.404 180.749C131.404 180.98 131.481 181.157 131.639 181.279C131.801 181.396 132.042 181.52 132.362 181.648C132.618 181.762 132.82 181.858 132.967 181.943C133.118 182.027 133.246 182.144 133.353 182.295C133.458 182.442 133.513 182.629 133.513 182.858C133.513 183.15 133.441 183.419 133.303 183.665C133.162 183.913 132.946 184.11 132.656 184.262C132.37 184.407 132.013 184.48 131.589 184.48C131.246 184.48 130.967 184.43 130.748 184.329C130.534 184.224 130.379 184.11 130.278 183.993C130.177 183.875 130.126 183.806 130.126 183.783L130.421 183.438Z" fill="#F5F5F5"/>
<path d="M135.83 180.011L135.418 182.91C135.395 183.09 135.384 183.262 135.384 183.431C135.384 183.645 135.418 183.796 135.485 183.884C135.552 183.968 135.657 184.01 135.804 184.01C135.966 184.01 136.115 183.998 136.25 183.968C136.388 183.935 136.46 183.916 136.46 183.909L136.443 184.296C136.43 184.309 136.388 184.328 136.317 184.355C136.25 184.382 136.145 184.409 136.006 184.439C135.872 184.466 135.712 184.481 135.527 184.481C135.229 184.481 135.008 184.407 134.863 184.262C134.723 184.117 134.653 183.88 134.653 183.548C134.653 183.393 134.666 183.237 134.695 183.086L135.124 180.011H134.62L134.687 179.607L135.191 179.548L135.67 178.011H136.107L135.897 179.54H137.132L137.065 180.011H135.83Z" fill="#F5F5F5"/>
<path d="M138.479 177.832C138.557 177.765 138.655 177.731 138.773 177.731C138.891 177.731 138.983 177.763 139.05 177.824C139.101 177.881 139.126 177.965 139.126 178.076C139.126 178.217 139.069 178.343 138.958 178.454C138.857 178.528 138.752 178.563 138.647 178.563C138.534 178.563 138.448 178.528 138.387 178.454C138.33 178.383 138.303 178.299 138.303 178.202C138.303 178.131 138.315 178.063 138.345 178C138.372 177.933 138.416 177.878 138.479 177.832ZM138.185 184.378H137.487L138.168 179.538H138.866L138.185 184.378Z" fill="#F5F5F5"/>
<path d="M140.886 179.539L140.928 179.985C141.285 179.621 141.779 179.438 142.407 179.438C142.82 179.438 143.138 179.539 143.356 179.741C143.579 179.943 143.692 180.243 143.692 180.64C143.692 180.754 143.684 180.873 143.667 181.001L143.196 184.379H142.491L142.961 181.085C142.972 181.018 142.978 180.924 142.978 180.8C142.978 180.241 142.684 179.959 142.096 179.959C141.77 179.959 141.51 180.016 141.314 180.128C141.123 180.241 140.98 180.344 140.886 180.438L140.331 184.379H139.625L140.306 179.539H140.886Z" fill="#F5F5F5"/>
<path d="M147.56 184.379L147.526 183.816C147.426 183.968 147.262 184.117 147.039 184.262C146.821 184.407 146.52 184.48 146.14 184.48C145.636 184.48 145.235 184.31 144.938 183.968C144.64 183.621 144.493 183.142 144.493 182.531C144.493 181.955 144.588 181.434 144.779 180.968C144.974 180.497 145.253 180.125 145.619 179.85C145.989 179.577 146.428 179.438 146.938 179.438C147.295 179.438 147.562 179.501 147.736 179.623C147.909 179.747 148.022 179.859 148.073 179.959L148.241 179.539H148.804L148.123 184.379H147.56ZM146.375 184.001C146.678 184.001 146.926 183.93 147.123 183.783C147.318 183.631 147.461 183.489 147.552 183.354L147.98 180.422C147.963 180.384 147.921 180.325 147.854 180.245C147.791 180.167 147.69 180.092 147.552 180.018C147.417 179.947 147.243 179.909 147.031 179.909C146.442 179.909 145.993 180.151 145.686 180.632C145.384 181.109 145.232 181.758 145.232 182.581C145.232 183.052 145.329 183.409 145.527 183.648C145.728 183.884 146.01 184.001 146.375 184.001Z" fill="#F5F5F5"/>
</g>
<defs>
<clipPath id="clip0_83_504">
<rect width="242" height="204" fill="white"/>
</clipPath>
</defs>
</svg>
