<svg width="223" height="199" viewBox="0 0 223 199" fill="none" xmlns="http://www.w3.org/2000/svg">
<mask id="mask0_83_597" style="mask-type:luminance" maskUnits="userSpaceOnUse" x="66" y="37" width="69" height="56">
<path d="M66.2377 37.5449H134.743V92.789H66.2377V37.5449Z" fill="white"/>
</mask>
<g mask="url(#mask0_83_597)">
<path d="M132.578 58.6233C131.88 59.4215 131.16 60.1967 130.416 60.9509C128.906 62.4823 127.301 63.9212 125.62 65.2636C122.549 67.7151 119.236 69.7822 115.762 71.593C117.112 70.5384 118.171 69.2885 119.104 67.7445C120.791 64.9506 121.868 61.7743 122.253 58.5267C123.165 57.9406 124.108 57.4238 125.162 57.1444C126.101 56.8944 127.078 56.7537 128.034 56.5898C129.061 56.4134 130.097 56.2747 131.139 56.2369C131.487 56.2222 134.248 56.4407 134.355 56.5331C133.712 57.1717 133.174 57.9427 132.578 58.6233ZM130.864 62.0705C129.586 63.7994 128.406 65.5892 126.841 67.0786C124.127 69.6582 120.793 71.3241 117.499 73.0235C116.089 72.9185 114.659 72.9878 113.298 73.1685C113.701 72.95 114.102 72.721 114.493 72.4795C114.734 72.3303 114.97 72.1749 115.194 72.0173C118.978 70.3473 122.545 68.131 125.786 65.5682C127.383 64.3036 128.906 62.9486 130.349 61.5138C131.099 60.766 131.828 59.9992 132.534 59.2094C132.92 58.7766 133.349 58.3313 133.748 57.867C132.901 59.3417 131.874 60.703 130.864 62.0705ZM122.921 74.9478C124.227 75.7565 125.311 76.8846 126.328 78.0232C126.526 78.2438 127.007 78.6219 127.095 78.9013C127.345 79.6975 126.589 79.8466 126.12 80.063C125.353 80.4138 124.576 80.7478 123.795 81.065C122.236 81.7015 120.654 82.2834 119.077 82.8695C117.558 83.4346 116.049 84.0627 114.47 84.4261C112.932 84.779 111.352 85.0668 109.791 85.2874C108.124 85.5227 106.088 85.4281 105.052 83.9135C105.227 82.1742 105.008 80.3928 104.323 78.8131C104.216 78.5127 104.082 78.227 103.91 77.9707C103.907 77.9686 103.907 77.9665 103.905 77.9644C103.903 77.9602 103.899 77.9581 103.897 77.9539C103.828 77.8572 103.758 77.7606 103.676 77.6724C105.34 77.6472 106.96 77.2312 108.142 75.9603C108.319 75.7713 108.483 75.5654 108.64 75.3511C109.365 74.6033 110.777 74.3827 111.705 73.9626C112.052 73.805 112.392 73.639 112.73 73.4668C116.031 72.9815 120.011 73.1454 122.921 74.9478ZM103.765 87.2431C103.187 88.554 102.336 89.7619 101.214 90.6631C100.097 91.5622 98.8742 91.9718 97.5171 92.184C97.66 92.0873 97.7902 91.9823 97.8953 91.913C98.5129 91.4971 99.0927 91.0307 99.6472 90.5328C101.431 88.9216 103.393 87.0184 104.229 84.7181C104.487 84.0102 104.653 83.2686 104.727 82.5187C104.727 82.5313 104.729 82.5439 104.729 82.5565C104.737 84.1572 104.412 85.7769 103.765 87.2431ZM97.368 91.8626C96.2483 92.3415 94.6098 90.0602 94.0363 89.2409C93.1582 87.9847 92.654 86.5877 92.5826 85.0542C92.5133 83.5207 92.2423 82.1069 92.7675 80.6197C93.2485 79.2521 94.0006 78.0148 94.9417 76.9161C95.6622 76.872 96.3744 76.7271 97.0676 76.5065C97.3869 76.4183 97.7125 76.3048 98.0129 76.1599C98.1747 76.0927 98.3385 76.0233 98.4982 75.9498C98.5528 75.9246 98.7166 75.7166 98.807 75.62C98.8133 75.6137 98.8196 75.6074 98.8259 75.6011C98.8448 75.5801 98.8616 75.5654 98.8826 75.5423C98.8868 75.536 98.8889 75.5318 98.8931 75.5255C98.9477 75.4625 99.0002 75.3994 99.0443 75.3322C99.2502 76.7229 101.166 77.5169 102.42 77.6241C102.716 77.6493 103.013 77.6661 103.309 77.6724C103.513 77.8467 103.678 78.061 103.817 78.3005C103.991 78.7815 104.155 79.2563 104.292 79.7332C104.424 80.4999 104.424 81.3024 104.389 81.9347C104.315 83.2434 103.981 84.4954 103.376 85.6571C102.695 86.9659 101.643 88.0477 100.624 89.0981C100.08 89.6589 99.5149 90.203 98.9162 90.7072C98.4561 91.0937 97.9226 91.6252 97.368 91.8626ZM92.1478 83.2308C89.4778 84.4576 86.6628 85.4975 83.7051 85.6592C80.7347 85.8189 77.8021 85.1298 75.3443 83.4262C74.191 82.6258 73.0608 81.796 71.9181 80.9831C71.3425 80.5713 70.7354 80.1617 70.2753 79.6155C70.0085 79.2983 69.7901 79.042 69.9161 78.6072C70.0337 78.2102 70.3404 77.8005 70.5799 77.4602C72.2164 75.1326 74.9347 73.8953 77.5878 73.1307C80.6675 72.2442 84.4508 71.0783 87.4821 72.6349C87.9716 73.3323 88.5241 73.9815 89.1669 74.5339C90.3685 75.5738 91.7696 76.5716 93.3641 76.8405C93.7968 76.914 94.2274 76.9392 94.6539 76.9308C93.8661 77.8089 93.2107 78.7879 92.7381 79.8739C92.2339 81.0293 92.0847 82.0439 92.1478 83.2308ZM77.695 69.8662C75.6321 68.818 73.815 67.3706 72.3256 65.5997C70.8656 63.8582 69.5926 61.8941 68.4561 59.9278C67.849 58.8796 67.3133 57.7809 66.9751 56.6108C66.7945 55.9827 66.6621 55.3399 66.6096 54.6866C66.5802 54.34 66.4689 53.3947 66.6453 52.9073C66.7504 55.0563 67.9646 56.9931 69.1662 58.7136C70.6198 60.7891 72.3109 62.7007 74.0062 64.5809C75.6216 66.3748 77.8798 67.3034 79.9763 68.4209C82.39 69.7087 84.8037 71.0006 87.2321 72.2631C87.2384 72.2736 87.2447 72.2841 87.251 72.2925C86.0999 71.7505 84.8689 71.5972 83.621 71.656C81.5414 71.3241 79.5919 70.8304 77.695 69.8662ZM76.2077 53.966C79.1382 54.6719 81.5939 56.0478 83.5055 58.4048C83.5097 58.409 83.5139 58.4111 83.5181 58.4153C83.6231 61.2807 84.8604 63.9128 86.5557 66.2236C86.0662 65.9337 85.5747 65.6459 85.0705 65.377C85.0138 65.2531 84.7554 65.2384 84.726 65.3833C84.3647 67.1227 85.4697 69.0427 86.2385 70.5426C86.499 71.0552 86.791 71.5594 87.1019 72.053C85.1524 70.8346 83.0707 69.8053 81.0498 68.715C78.7957 67.5008 76.1489 66.4757 74.399 64.5619C72.8088 62.8226 71.2858 60.9866 69.8993 59.0812C68.5191 57.178 67.2272 55.1445 67.034 52.7539C70.0926 52.9535 73.2268 53.2455 76.2077 53.966ZM77.5122 50.8759C77.445 49.7542 77.4618 48.6261 77.5668 47.5064C77.6761 46.3468 77.8756 45.1956 78.1655 44.0676C78.2979 43.5508 78.4512 43.0361 78.6214 42.5299C78.7705 42.0845 78.7432 41.824 79.3209 41.7799C79.552 41.761 79.8314 41.8576 80.0541 41.9018C82.3207 42.3597 84.0916 43.5592 85.9213 44.9037C87.6607 46.183 89.6899 47.4959 90.2634 49.7163C90.2697 49.7437 90.2928 49.7605 90.3202 49.7689C89.9714 50.5251 89.732 51.3297 89.6437 52.1721C88.9778 50.8717 88.3077 49.5819 87.6838 48.3005C87.6313 48.1933 87.4611 48.1765 87.3855 48.2711C85.3268 50.8822 83.7681 53.8988 83.5328 57.2704C83.5181 57.5162 83.5118 57.7578 83.5118 58.0015C82.0854 56.1592 80.2305 54.9702 78.1697 54.1845C77.5941 53.2329 77.5752 51.9515 77.5122 50.8759ZM93.8703 39.3683C94.0615 39.0721 94.2506 38.7717 94.4816 38.5049C94.9921 37.9167 95.2043 38.0155 95.8009 38.36C96.4983 38.7654 97.1978 39.1709 97.8953 39.5742C99.2943 40.3851 100.822 41.1854 101.525 42.721C100.761 43.6558 99.977 44.7629 99.8426 45.8721C99.3573 45.5885 98.7881 45.2125 98.2356 45.2545C97.7125 45.2944 97.3386 45.7544 96.971 46.0821C96.9373 46.1115 96.9037 46.1431 96.868 46.1725C96.4752 45.6032 95.95 44.9247 95.177 44.9793C94.2211 45.0444 93.2359 46.0758 92.5868 46.6892C91.7108 47.5127 90.9546 48.4811 90.4231 49.5525C90.358 49.2899 90.2718 49.0441 90.171 48.8046C90.2655 45.2398 91.965 42.2862 93.8703 39.3683ZM102.714 41.8366C103.286 41.1833 103.899 40.5636 104.548 39.988C104.777 39.7864 105.157 39.3221 105.449 39.236C106.065 39.0511 106.304 39.9901 106.456 40.4166C107.308 42.8345 107.754 45.4372 107.67 48.0106C107.663 48.0274 107.655 48.04 107.649 48.0547C107.636 48.082 107.649 48.0967 107.668 48.1093C107.63 49.0735 107.523 50.0314 107.329 50.9768C106.872 49.1912 105.643 47.8026 103.842 47.2102C103.76 47.1829 103.601 47.2102 103.636 47.3321C103.853 48.0925 104.048 48.8404 104.199 49.5945C103.727 48.6492 102.926 47.8614 102.086 47.2375C101.441 46.7607 100.744 46.3573 100.038 45.9813C100.038 45.9813 100.038 45.9813 100.038 45.9792C100.685 44.4373 101.618 43.0971 102.714 41.8366ZM107.901 47.9013C109.743 44.5528 112.829 42.2295 115.898 40.0637C116.516 41.8093 116.564 43.5403 116.432 45.3847C116.285 47.3993 116.117 49.4117 115.989 51.4284C115.751 55.1781 115.024 58.6317 113.497 62.0327C112.489 63.0284 111.558 64.0977 110.844 65.3161C111.497 62.7133 111.558 60.098 110.842 57.4868C110.468 56.1193 110.178 54.7307 109.8 53.3652C109.493 52.2624 109.037 51.2709 108.218 50.46C108.163 50.4054 108.063 50.4327 108.016 50.481C107.85 50.6554 107.691 50.8381 107.531 51.0209C107.756 49.9915 107.871 48.9496 107.901 47.9013ZM117.816 49.2353C117.86 52.4409 117.436 55.5878 117.259 58.7766C116.594 59.2703 115.976 59.7577 115.497 60.1841C114.989 60.6358 114.478 61.0958 113.98 61.5685C115.417 58.3502 115.928 54.9492 116.247 51.4284C116.434 49.3571 116.581 47.2837 116.749 45.2125C116.867 43.7714 116.867 42.408 116.56 41.0489C117.638 43.6117 117.776 46.454 117.816 49.2353ZM121.971 55.7831C121.293 57.2725 120.547 58.6737 119.604 60.0244C118.547 61.5369 117.407 62.9906 116.31 64.4758C114.136 67.421 111.943 70.3515 109.785 73.3092C110.262 72.1791 110.577 70.967 110.756 69.8515C110.934 68.7339 111.008 67.2193 110.724 65.8728C111.462 64.7216 113.556 62.455 113.613 62.3436C114.323 61.6252 115.071 60.9383 115.837 60.2597C116.306 59.8438 120.364 56.6486 121.971 55.7831ZM99.4183 74.7944C99.6935 74.368 99.9539 73.9268 100.25 73.5235C101.219 72.2148 102.649 71.3724 103.735 70.1645C104.825 68.9566 105.884 67.7781 107.086 66.6815C107.231 66.5513 109.033 64.6565 109.441 63.7406C110.655 64.9926 110.731 67.4273 110.598 69.0385C110.449 70.8472 109.834 72.7589 108.97 74.3554C107.985 76.1809 106.479 77.269 104.38 77.3699C103.485 77.4119 102.508 77.4728 101.643 77.2144C100.635 76.9098 99.1599 76.1032 99.4204 74.8364C99.4225 74.8196 99.4204 74.807 99.4183 74.7944ZM96.3723 71.2653C95.8093 70.925 95.2316 70.6014 94.6497 70.2821C94.1224 67.6332 94.072 64.959 94.7316 62.3226C95.429 59.5371 96.9562 57.2368 98.8322 55.1067C99.0401 54.8693 99.2523 54.6362 99.4645 54.4009C99.683 54.1614 100.206 53.3842 100.49 53.3001C101.342 53.0522 101.809 53.9787 102.216 54.5521C103.042 55.7054 103.826 56.8965 104.544 58.1191C105.252 59.3312 105.878 60.5874 106.403 61.8899C106.953 63.249 107.195 64.6124 107.437 66.045C107.201 66.2761 106.958 66.5009 106.71 66.7236C105.746 67.6017 104.872 68.5197 104.019 69.507C103.502 70.1015 102.981 70.6918 102.393 71.219C101.918 71.6455 101.38 71.9942 100.92 72.4375C100.462 72.8786 100.078 73.3891 99.7271 73.9184C99.5989 74.1117 99.4582 74.3827 99.2985 74.6621C99.2859 74.6579 99.2733 74.6537 99.2607 74.6516C99.3237 73.1559 97.473 71.9312 96.3723 71.2653ZM93.8283 70.3115C95.2715 71.0783 96.8344 71.7841 97.9814 72.9815C98.2293 73.2399 98.4751 73.5235 98.6557 73.8344C99.0843 74.5739 98.8238 75.2587 98.1452 75.6536C97.4268 76.0717 96.5928 76.2292 95.8345 76.5527C95.8219 76.5569 95.8156 76.5632 95.8072 76.5695C94.9396 76.704 94.0573 76.7103 93.1813 76.5107C91.6352 76.1599 90.1563 75.0654 89.0366 73.9647C87.9401 72.8891 87.2006 71.5762 86.5578 70.1939C85.8499 68.6793 85.2092 67.234 85.0978 65.5535C87.8077 67.4861 90.8936 68.7528 93.8283 70.3115ZM91.6562 56.9637C92.9376 59.785 93.4292 62.7028 93.8661 65.7404C93.8388 67.2298 94.0195 68.7255 94.4144 70.154C93.2485 69.5238 92.0637 68.923 90.8936 68.3264C89.9252 67.8306 88.8728 67.5281 87.9233 67.0093C87.6019 66.8349 87.2868 66.65 86.9716 66.4673C85.0768 63.7721 83.6589 60.6252 83.9067 57.2704C84.142 54.0858 85.6482 51.1637 87.5031 48.6219C88.9379 51.3675 90.3769 54.1446 91.6562 56.9637ZM95.0425 47.853C94.0132 48.8971 93.1498 50.0546 92.7885 51.4914C91.9356 52.4577 91.3012 53.6215 90.9903 54.8672C90.5911 54.0333 90.1752 53.2077 89.7551 52.3863C90.0387 50.7184 90.7088 49.1996 91.7885 47.8782C92.341 47.2039 92.9754 46.6031 93.6624 46.0674C93.988 45.8112 94.3976 45.4372 94.7883 45.2965C95.7441 44.952 96.2336 45.6872 96.6495 46.288C96.6622 46.3048 96.679 46.3153 96.6979 46.3237C96.1349 46.8216 95.5719 47.3173 95.0425 47.853ZM104.475 51.628C104.097 50.502 103.447 49.4475 102.487 48.7731C102.034 48.4559 101.101 47.8971 100.511 48.0526C100.076 48.166 99.7922 49.0588 99.6682 49.4895C99.0317 48.8467 98.2398 48.3635 97.3323 48.0988C97.284 48.0862 97.2314 48.1072 97.1999 48.1408C96.305 49.1344 95.6874 50.3192 95.4795 51.6406C95.3198 51.0608 95.1644 50.481 95.0194 49.8991C95.0005 49.8193 94.864 49.7962 94.803 49.8319C94.1707 50.1995 93.5867 50.6596 93.0721 51.1868C93.4502 50.126 94.0909 49.2101 94.8619 48.3803C95.3324 47.874 95.845 47.4056 96.3618 46.9434C96.7903 46.5611 97.3092 45.9162 97.828 45.6536C98.5885 45.265 99.4015 45.8973 100.027 46.2355C100.712 46.6073 101.387 47.0043 102.004 47.4791C103.042 48.2753 103.771 49.229 104.338 50.376C104.401 50.7877 104.449 51.2057 104.475 51.628ZM105.298 54.2959C105.22 53.8064 105.063 53.3211 104.79 52.9178C104.752 52.6783 104.702 52.4388 104.641 52.1994C104.783 50.6175 104.384 49.021 103.968 47.498C105.605 48.1555 106.88 49.605 107.25 51.3423C106.496 52.2477 105.834 53.2413 105.298 54.2959ZM107.411 51.5355C107.424 51.5271 107.432 51.5166 107.437 51.5019C107.655 51.2309 107.884 50.9642 108.128 50.7037C109.739 52.4683 109.888 55.1992 110.539 57.4007C111.304 59.9929 111.382 62.7848 110.602 65.3812C110.382 64.6229 110.029 63.9464 109.489 63.4633C109.428 63.4087 109.304 63.4297 109.273 63.5074C108.913 64.4065 108.338 65.1312 107.682 65.7993C107.502 63.5242 106.535 61.2029 105.491 59.2241C105.143 58.5624 104.767 57.9133 104.374 57.2767C105.071 55.1634 106.031 53.2413 107.411 51.5355ZM95.8282 53.7959C96.2 55.1298 96.3996 56.3167 96.3533 57.6696C95.3366 59.2346 94.5909 60.9467 94.1959 62.7995C94.0951 63.2721 94.0237 63.7511 93.9691 64.2321C93.6414 61.0538 92.4986 58.0561 91.1247 55.1508C91.7948 53.0627 92.9985 51.4053 94.7925 50.1491C95.1581 51.357 95.49 52.5796 95.8282 53.7959ZM99.7691 49.5945C99.9035 49.2857 100.051 48.8004 100.292 48.5673C100.775 48.0946 101.168 48.3089 101.651 48.5294C102.321 48.8362 102.882 49.3025 103.326 49.8907C103.931 50.689 104.231 51.5986 104.5 52.5355C104.5 52.546 104.5 52.5586 104.5 52.5691C104.367 52.4388 104.216 52.3233 104.044 52.2288C103.735 52.0628 103.376 51.9683 103.023 51.9872C102.823 51.9956 102.376 52.233 102.218 52.1889C101.975 52.1237 101.716 51.6742 101.433 51.546C101.265 51.4683 101.08 51.42 100.895 51.3969C100.637 50.7121 100.248 50.1071 99.7691 49.5945ZM100.637 51.3864C100.567 51.3885 100.5 51.3927 100.433 51.4032C99.7586 51.5124 99.2544 52.0124 99.0716 52.6426C98.6116 52.0628 97.9688 51.4788 97.202 51.8675C96.4773 52.2351 96.2021 53.1615 96.1223 53.9871C95.9353 53.2854 95.7378 52.5838 95.5467 51.8843C95.7652 50.9116 96.5277 48.0778 97.8259 48.4643C99.1263 48.853 100.162 50.1701 100.637 51.3864ZM96.2273 54.382C96.2903 53.8778 96.3828 53.3694 96.5928 52.9052C96.8743 52.2855 97.3449 51.5187 98.391 52.191C98.6494 52.3569 98.8574 52.6972 99.0317 52.943C99.0758 53.0039 99.2229 53.0081 99.2439 52.922C99.5968 51.5082 101.321 51.149 102.055 52.4725C102.092 52.5418 102.21 52.5334 102.263 52.4935C103.149 51.8275 104.225 52.3884 104.706 53.2455C104.941 53.6656 105.061 54.1131 105.162 54.5773C104.777 55.3756 104.462 56.2054 104.241 57.0604C104.059 56.7684 103.874 56.4764 103.687 56.1886C103.004 55.1466 102.303 53.8127 101.332 53.0123C100.822 52.5901 100.435 52.9304 100.011 53.3316C99.0611 54.2307 98.1726 55.2517 97.3575 56.2726C97.0802 56.6213 96.8218 56.9805 96.5718 57.3461C96.6958 56.3692 96.4689 55.3168 96.2273 54.382ZM122.19 56.1781C121.99 60.4236 120.77 64.5157 118.472 68.11C117.142 70.1939 115.478 71.6098 113.325 72.8051C112.371 73.3344 111.384 73.7903 110.373 74.2062C109.89 74.4058 109.39 74.5739 108.974 74.8659C109.165 74.5697 109.342 74.2588 109.499 73.9373C109.504 73.9352 109.508 73.9352 109.51 73.931C111.97 70.7506 114.384 67.5323 116.812 64.3288C117.917 62.8709 119.039 61.4172 120.074 59.911C120.868 58.7577 121.679 57.5057 122.19 56.1781ZM134.714 56.4302C134.712 56.3818 134.674 56.3377 134.613 56.323C132.418 55.7958 130.158 55.9911 127.956 56.3713C126.9 56.5541 125.803 56.739 124.776 57.0583C123.864 57.344 123.049 57.846 122.27 58.3901C122.375 57.4532 122.425 56.5121 122.412 55.5731C122.412 55.5647 122.406 55.5626 122.404 55.5563C122.408 55.5416 122.436 55.216 122.125 55.4491C122.116 55.4554 119.677 57.0058 117.564 58.5519C118.079 55.2895 118.198 51.8485 118.106 48.561C118.03 45.7922 117.993 42.4038 116.281 40.0742C116.245 39.9712 115.959 39.6372 115.869 39.7002C112.814 41.8492 109.644 44.1432 107.907 47.5295C107.916 46.4918 107.84 45.4519 107.691 44.4184C107.533 43.3281 107.317 42.2442 107.019 41.1875C106.79 40.3746 106.542 39.3452 105.874 38.7717C105.815 38.7213 105.718 38.7213 105.649 38.7507C104.983 39.028 104.372 39.6939 103.851 40.1813C103.269 40.7275 102.716 41.3052 102.202 41.9144C102.057 42.0866 101.901 42.2673 101.742 42.4584C101.156 41.1497 99.9077 40.3683 98.6956 39.6582C97.702 39.0742 96.7126 38.4755 95.7042 37.9167C95.0824 37.5722 94.8535 37.6058 94.3241 38.1352C93.675 38.7864 93.2128 39.6813 92.7318 40.4565C92.2087 41.301 91.7171 42.1622 91.2928 43.0613C90.4987 44.7419 89.9231 46.5842 90.0114 48.4559C89.0891 46.6388 87.1922 45.4771 85.5642 44.2818C83.4887 42.7546 81.3712 41.7064 78.7768 41.4501C78.7096 41.4438 78.6298 41.4879 78.6046 41.5509C77.7748 43.7168 77.2727 45.9897 77.1404 48.3089C77.0711 49.4832 77.0984 50.6638 77.2202 51.8359C77.3 52.6006 77.382 53.3737 77.7559 54.0333C74.3108 52.8254 70.3404 52.6657 66.8281 52.4451C66.1727 52.4052 66.284 54.5752 66.3512 55.1445C66.5004 56.4302 66.9352 57.657 67.5024 58.8144C68.6284 61.1168 70.1283 63.3709 71.7311 65.3665C74.4263 68.7297 78.51 71.2716 82.8606 71.7169C81.5077 71.8619 80.1486 72.2085 78.8672 72.5278C75.9913 73.2462 73.0756 74.2651 71.0253 76.5128C70.4875 77.1031 69.2649 78.3887 69.6997 79.2626C70.3594 80.5881 72.1365 81.4641 73.2898 82.2897C74.6049 83.2329 75.8884 84.216 77.3925 84.8442C78.7369 85.4071 80.1759 85.7369 81.6254 85.8546C85.2785 86.1508 88.9484 85.1235 92.1646 83.443C92.1709 83.5417 92.1772 83.6363 92.1856 83.7371C92.3137 85.0605 92.2696 86.302 92.7696 87.5604C93.2212 88.6947 93.927 89.7073 94.7589 90.5938C95.1307 90.9887 95.5257 91.3626 95.9311 91.7197C96.1685 91.9298 96.5151 92.3499 96.8638 92.4109C96.8743 92.4151 96.8806 92.4235 96.8932 92.4256C99.8804 92.7932 102.574 90.432 103.868 87.9469C104.464 86.802 104.857 85.5101 105.021 84.1845C106.353 86.1865 109.09 85.7727 111.212 85.3924C112.737 85.1193 114.289 84.8946 115.772 84.4366C117.173 84.0039 118.539 83.4409 119.911 82.9262C121.49 82.3317 123.07 81.7372 124.627 81.0797C125.351 80.7751 126.076 80.4621 126.786 80.1197C127.105 79.9663 127.652 79.7647 127.694 79.3361C127.734 78.9286 127.278 78.582 127.038 78.3152C126.572 77.7984 126.103 77.2817 125.612 76.7901C124.652 75.8259 123.591 74.9373 122.379 74.3092C120.965 73.5781 119.377 73.1937 117.755 73.0467C121.192 71.5657 124.603 69.6939 127.288 67.0597C128.769 65.6081 129.952 63.8897 131.13 62.1924C132.328 60.4656 133.622 58.7808 134.544 56.886C134.559 56.8587 134.662 56.6297 134.714 56.5331C134.737 56.4932 134.731 56.4575 134.714 56.4302Z" fill="#323232"/>
</g>
<path d="M50.6404 117.49H50.7749L53.3146 110.818H53.3944L55.9237 117.49H56.0686L58.8016 109.452H58.2491L56.0245 116.034H55.9447L53.428 109.328H53.2705L50.7517 116.034H50.6845L48.4599 109.452H47.9074L50.6404 117.49Z" fill="#323232"/>
<path d="M59.8832 117.356H65.7652V116.86H60.4021V113.552H64.8514V113.1H60.4021V109.951H65.6286V109.453H59.8832V117.356Z" fill="#323232"/>
<path d="M67.2875 117.356H72.8985V116.86H67.819V109.453H67.2875V117.356Z" fill="#323232"/>
<path d="M74.2291 117.356H79.8401V116.86H74.7606V109.453H74.2291V117.356Z" fill="#323232"/>
<path d="M81.1706 117.356H84.9182C86.4433 117.356 87.5609 116.463 87.5609 115.234C87.5609 114.264 86.895 113.506 85.8887 113.224V113.167C86.645 112.863 87.1302 112.23 87.1302 111.418C87.1302 110.243 86.1492 109.453 84.7712 109.453H81.1706V117.356ZM81.702 113.09V109.939H84.7144C85.811 109.939 86.6114 110.537 86.6114 111.497C86.6114 112.445 85.811 113.09 84.7144 113.09H81.702ZM81.702 116.871V113.529H84.8741C86.1261 113.529 87.0294 114.174 87.0294 115.178C87.0294 116.192 86.1261 116.871 84.8741 116.871H81.702Z" fill="#323232"/>
<path d="M89.1053 117.356H94.9873V116.86H89.6242V113.552H94.0735V113.1H89.6242V109.951H94.8507V109.453H89.1053V117.356Z" fill="#323232"/>
<path d="M96.5096 117.356H97.0411V109.453H96.5096V117.356Z" fill="#323232"/>
<path d="M105.257 117.49H105.451V109.452H104.932V116.17H104.862L99.0372 109.328H98.8461V117.355H99.3649V110.637H99.4448L105.257 117.49Z" fill="#323232"/>
<path d="M110.879 117.49C112.9 117.49 114.525 115.977 114.639 113.685H115.553V113.223H111.116V113.685H114.118C114.007 115.628 112.595 116.994 110.879 116.994C108.982 116.994 107.492 115.605 107.492 113.517C107.492 111.484 109.005 109.824 110.992 109.824C112.154 109.824 113.147 110.311 113.679 110.898L114.051 110.48C113.465 109.86 112.595 109.328 110.992 109.328C108.711 109.328 106.973 111.202 106.973 113.517C106.973 115.899 108.688 117.49 110.879 117.49Z" fill="#323232"/>
<path d="M122.415 117.356H122.933V114.138L126.297 109.453H125.677L122.707 113.541H122.639L119.692 109.453H119.06L122.415 114.127V117.356Z" fill="#323232"/>
<path d="M130.992 117.49C133.273 117.49 134.943 115.796 134.943 113.414C134.943 111.034 133.273 109.328 130.992 109.328C128.723 109.328 127.053 111.034 127.053 113.414C127.053 115.796 128.723 117.49 130.992 117.49ZM130.992 116.994C129.017 116.994 127.572 115.504 127.572 113.414C127.572 111.326 129.017 109.824 130.992 109.824C132.979 109.824 134.424 111.326 134.424 113.414C134.424 115.504 132.979 116.994 130.992 116.994Z" fill="#323232"/>
<path d="M140.089 117.49C142.11 117.49 143.736 115.977 143.85 113.685H144.764V113.223H140.327V113.685H143.329C143.217 115.628 141.806 116.994 140.089 116.994C138.193 116.994 136.703 115.605 136.703 113.517C136.703 111.484 138.216 109.824 140.203 109.824C141.365 109.824 142.358 110.311 142.89 110.898L143.262 110.48C142.675 109.86 141.806 109.328 140.203 109.328C137.922 109.328 136.184 111.202 136.184 113.517C136.184 115.899 137.898 117.49 140.089 117.49Z" fill="#323232"/>
<path d="M145.223 117.355H145.822L146.557 115.729H151.569L152.313 117.355H152.901L149.141 109.328H148.983L145.223 117.355ZM146.771 115.29L149.03 110.356H149.097L151.366 115.29H146.771Z" fill="#323232"/>
<path d="M82.9646 136.541L80.9899 141.381H80.3681L79.7883 137.457L78.091 141.381H77.4608L76.8642 136.541H77.6456L78.0069 140.49H78.0153L79.7211 136.541H80.2673L80.9227 140.49L82.4184 136.541H82.9646Z" fill="#323232"/>
<path d="M84.1409 134.832C84.2186 134.765 84.3173 134.731 84.4349 134.731C84.5526 134.731 84.645 134.763 84.7122 134.824C84.7627 134.881 84.7879 134.965 84.7879 135.076C84.7879 135.217 84.7311 135.343 84.6198 135.454C84.519 135.528 84.4139 135.563 84.3089 135.563C84.1955 135.563 84.1093 135.528 84.0484 135.454C83.9917 135.383 83.9644 135.299 83.9644 135.202C83.9644 135.131 83.977 135.063 84.0064 135C84.0337 134.933 84.0778 134.878 84.1409 134.832ZM83.8468 141.378H83.1493L83.8299 136.538H84.5274L83.8468 141.378Z" fill="#323232"/>
<path d="M86.783 137.011L86.3713 139.91C86.3482 140.091 86.3377 140.263 86.3377 140.431C86.3377 140.645 86.3713 140.797 86.4385 140.885C86.5057 140.969 86.6108 141.011 86.7578 141.011C86.9196 141.011 87.0687 140.998 87.2032 140.969C87.3418 140.935 87.4132 140.916 87.4132 140.91L87.3964 141.297C87.3838 141.309 87.3418 141.328 87.2704 141.355C87.2032 141.383 87.0981 141.41 86.9595 141.439C86.825 141.467 86.6654 141.481 86.4805 141.481C86.1822 141.481 85.9617 141.408 85.8167 141.263C85.676 141.118 85.6066 140.881 85.6066 140.549C85.6066 140.393 85.6192 140.238 85.6487 140.087L86.0772 137.011H85.573L85.6403 136.608L86.1444 136.549L86.6234 135.011H87.0603L86.8503 136.541H88.0855L88.0182 137.011H86.783Z" fill="#323232"/>
<path d="M90.1635 134.103L89.7602 136.968H89.777C89.777 136.952 89.8379 136.899 89.9619 136.809C90.0837 136.72 90.2517 136.636 90.466 136.557C90.6782 136.479 90.9282 136.439 91.2139 136.439C91.6214 136.439 91.9386 136.54 92.1634 136.741C92.3924 136.943 92.5079 137.244 92.5079 137.641C92.5079 137.754 92.4995 137.874 92.4827 138.002L92.0121 141.38H91.3063L91.76 138.086C91.7769 138.019 91.7853 137.916 91.7853 137.775C91.7853 137.496 91.7117 137.292 91.5668 137.162C91.426 137.027 91.2139 136.96 90.9282 136.96C90.6089 136.96 90.3442 137.019 90.1383 137.136C89.9303 137.25 89.7812 137.351 89.693 137.439L89.1384 141.38H88.4409L89.4493 134.137L90.1635 134.103Z" fill="#323232"/>
<path d="M100.603 136.01C100.603 135.999 100.515 135.949 100.342 135.858C100.168 135.764 99.9601 135.678 99.7206 135.598C99.4853 135.52 99.2416 135.48 98.9896 135.48C98.5295 135.48 98.1157 135.613 97.7459 135.875C97.3762 136.14 97.0779 136.528 96.8552 137.043C96.6368 137.554 96.5275 138.173 96.5275 138.9C96.5275 139.572 96.6914 140.091 97.0233 140.455C97.3594 140.814 97.8069 140.992 98.3677 140.992C98.7081 140.992 99.0148 140.923 99.2837 140.782C99.5525 140.644 99.7647 140.492 99.9223 140.329C100.078 140.167 100.158 140.074 100.158 140.051L100.384 140.362C100.384 140.396 100.292 140.509 100.107 140.698C99.9265 140.889 99.6744 141.068 99.3509 141.236C99.0316 141.398 98.6534 141.48 98.2165 141.48C97.4539 141.48 96.851 141.251 96.4099 140.791C95.973 140.326 95.7545 139.69 95.7545 138.883C95.7545 138.127 95.891 137.455 96.1662 136.867C96.4393 136.278 96.8216 135.823 97.309 135.497C97.8006 135.167 98.3593 135.001 98.9812 135.001C99.2774 135.001 99.5546 135.043 99.813 135.127C100.076 135.207 100.294 135.293 100.468 135.388C100.647 135.484 100.737 135.539 100.737 135.556L100.603 136.01Z" fill="#323232"/>
<path d="M102.865 134.103L102.462 136.968H102.478C102.478 136.952 102.539 136.899 102.663 136.809C102.785 136.72 102.953 136.636 103.167 136.557C103.38 136.479 103.63 136.439 103.915 136.439C104.323 136.439 104.64 136.54 104.865 136.741C105.094 136.943 105.209 137.244 105.209 137.641C105.209 137.754 105.201 137.874 105.184 138.002L104.714 141.38H104.008L104.462 138.086C104.478 138.019 104.487 137.916 104.487 137.775C104.487 137.496 104.413 137.292 104.268 137.162C104.128 137.027 103.915 136.96 103.63 136.96C103.31 136.96 103.046 137.019 102.84 137.136C102.632 137.25 102.483 137.351 102.394 137.439L101.84 141.38H101.142L102.151 134.137L102.865 134.103Z" fill="#323232"/>
<path d="M108.992 137.128C108.941 137.111 108.832 137.083 108.664 137.043C108.5 137.006 108.355 136.985 108.227 136.985C108.047 136.985 107.887 137.048 107.748 137.17C107.607 137.293 107.496 137.426 107.412 137.564C107.332 137.705 107.286 137.812 107.269 137.884V137.892L106.773 141.379H106.076L106.757 136.539H107.269L107.236 137.539C107.236 137.506 107.28 137.396 107.37 137.212C107.465 137.022 107.593 136.846 107.757 136.682C107.918 136.52 108.118 136.438 108.353 136.438C108.475 136.438 108.622 136.462 108.79 136.506C108.958 136.546 109.067 136.577 109.118 136.598L108.992 137.128Z" fill="#323232"/>
<path d="M110.241 134.832C110.318 134.765 110.417 134.731 110.535 134.731C110.652 134.731 110.745 134.763 110.812 134.824C110.862 134.881 110.888 134.965 110.888 135.076C110.888 135.217 110.831 135.343 110.72 135.454C110.619 135.528 110.514 135.563 110.409 135.563C110.295 135.563 110.209 135.528 110.148 135.454C110.091 135.383 110.064 135.299 110.064 135.202C110.064 135.131 110.077 135.063 110.106 135C110.133 134.933 110.178 134.878 110.241 134.832ZM109.946 141.378H109.249L109.93 136.538H110.627L109.946 141.378Z" fill="#323232"/>
<path d="M111.421 140.438C111.421 140.461 111.463 140.526 111.547 140.631C111.635 140.732 111.761 140.829 111.925 140.917C112.093 141.007 112.294 141.052 112.53 141.052C112.933 141.052 113.238 140.949 113.446 140.741C113.652 140.535 113.757 140.287 113.757 140.001C113.757 139.846 113.715 139.713 113.631 139.606C113.551 139.501 113.45 139.417 113.328 139.354C113.21 139.293 113.044 139.218 112.832 139.127C112.591 139.027 112.395 138.934 112.244 138.85C112.093 138.766 111.963 138.653 111.858 138.506C111.757 138.354 111.706 138.165 111.706 137.934C111.706 137.476 111.879 137.111 112.227 136.842C112.574 136.573 113.009 136.438 113.53 136.438C113.736 136.438 113.929 136.47 114.109 136.531C114.288 136.594 114.437 136.663 114.555 136.741C114.672 136.815 114.731 136.854 114.731 136.859L114.605 137.279C114.576 137.258 114.513 137.212 114.412 137.144C114.311 137.077 114.181 137.014 114.025 136.951C113.868 136.884 113.702 136.85 113.53 136.85C113.194 136.85 112.92 136.938 112.715 137.111C112.507 137.279 112.404 137.493 112.404 137.749C112.404 137.98 112.481 138.157 112.639 138.279C112.801 138.396 113.042 138.52 113.362 138.648C113.618 138.762 113.82 138.858 113.967 138.943C114.118 139.027 114.246 139.144 114.353 139.295C114.458 139.442 114.513 139.629 114.513 139.858C114.513 140.15 114.441 140.419 114.303 140.665C114.162 140.913 113.946 141.11 113.656 141.262C113.37 141.407 113.013 141.48 112.589 141.48C112.246 141.48 111.967 141.43 111.748 141.329C111.534 141.224 111.379 141.11 111.278 140.993C111.177 140.875 111.126 140.806 111.126 140.783L111.421 140.438Z" fill="#323232"/>
<path d="M116.83 137.011L116.418 139.91C116.395 140.091 116.384 140.263 116.384 140.431C116.384 140.645 116.418 140.797 116.485 140.885C116.552 140.969 116.657 141.011 116.804 141.011C116.966 141.011 117.115 140.998 117.25 140.969C117.388 140.935 117.46 140.916 117.46 140.91L117.443 141.297C117.43 141.309 117.388 141.328 117.317 141.355C117.25 141.383 117.145 141.41 117.006 141.439C116.872 141.467 116.712 141.481 116.527 141.481C116.229 141.481 116.008 141.408 115.863 141.263C115.723 141.118 115.653 140.881 115.653 140.549C115.653 140.393 115.666 140.238 115.695 140.087L116.124 137.011H115.62L115.687 136.608L116.191 136.549L116.67 135.011H117.107L116.897 136.541H118.132L118.065 137.011H116.83Z" fill="#323232"/>
<path d="M119.479 134.832C119.557 134.765 119.655 134.731 119.773 134.731C119.891 134.731 119.983 134.763 120.05 134.824C120.101 134.881 120.126 134.965 120.126 135.076C120.126 135.217 120.069 135.343 119.958 135.454C119.857 135.528 119.752 135.563 119.647 135.563C119.534 135.563 119.448 135.528 119.387 135.454C119.33 135.383 119.303 135.299 119.303 135.202C119.303 135.131 119.315 135.063 119.345 135C119.372 134.933 119.416 134.878 119.479 134.832ZM119.185 141.378H118.487L119.168 136.538H119.866L119.185 141.378Z" fill="#323232"/>
<path d="M121.886 136.539L121.928 136.985C122.285 136.621 122.779 136.438 123.407 136.438C123.82 136.438 124.138 136.539 124.356 136.741C124.579 136.943 124.692 137.243 124.692 137.64C124.692 137.754 124.684 137.873 124.667 138.001L124.196 141.379H123.491L123.961 138.085C123.972 138.018 123.978 137.924 123.978 137.8C123.978 137.241 123.684 136.959 123.096 136.959C122.77 136.959 122.51 137.016 122.314 137.128C122.123 137.241 121.98 137.344 121.886 137.438L121.331 141.379H120.625L121.306 136.539H121.886Z" fill="#323232"/>
<path d="M128.56 141.379L128.526 140.816C128.426 140.968 128.262 141.117 128.039 141.262C127.821 141.407 127.52 141.48 127.14 141.48C126.636 141.48 126.235 141.31 125.938 140.968C125.64 140.621 125.493 140.142 125.493 139.531C125.493 138.955 125.588 138.434 125.779 137.968C125.974 137.497 126.253 137.125 126.619 136.85C126.989 136.577 127.428 136.438 127.938 136.438C128.295 136.438 128.562 136.501 128.736 136.623C128.909 136.747 129.022 136.859 129.073 136.959L129.241 136.539H129.804L129.123 141.379H128.56ZM127.375 141.001C127.678 141.001 127.926 140.93 128.123 140.783C128.318 140.631 128.461 140.489 128.552 140.354L128.98 137.422C128.963 137.384 128.921 137.325 128.854 137.245C128.791 137.167 128.69 137.092 128.552 137.018C128.417 136.947 128.243 136.909 128.031 136.909C127.442 136.909 126.993 137.151 126.686 137.632C126.384 138.109 126.232 138.758 126.232 139.581C126.232 140.052 126.329 140.409 126.527 140.648C126.728 140.884 127.01 141.001 127.375 141.001Z" fill="#323232"/>
<mask id="mask1_83_597" style="mask-type:luminance" maskUnits="userSpaceOnUse" x="-19" y="-43" width="242" height="242">
<path d="M223 -43H-19V199H223V-43Z" fill="black" fill-opacity="0.3765"/>
</mask>
<g mask="url(#mask1_83_597)">
<mask id="mask2_83_597" style="mask-type:luminance" maskUnits="userSpaceOnUse" x="85" y="33" width="49" height="48">
<path d="M133.998 33.6323H85.5978V80.9568H133.998V33.6323Z" fill="white"/>
</mask>
<g mask="url(#mask2_83_597)">
<mask id="mask3_83_597" style="mask-type:luminance" maskUnits="userSpaceOnUse" x="86" y="33" width="48" height="48">
<path d="M86.0284 33.8245H133.912V80.8044H86.0284V33.8245Z" fill="white"/>
</mask>
<g mask="url(#mask3_83_597)">
<path d="M122.375 74.0324C125.597 71.6103 128.385 68.6316 130.675 65.3209C132.947 62.0333 134.781 57.9054 133.468 54.1368C132.674 51.8596 130.847 50.095 129.75 47.9481C128.065 44.6521 128.105 40.4865 125.62 37.7409C123.812 35.741 121.039 34.9427 118.388 34.4049C114.785 33.6739 110.657 33.3777 107.8 35.6822C105.153 37.8186 104.462 41.4801 102.933 44.5114C101.046 48.2506 98.1684 48.5342 94.6224 49.5068C74.6847 54.9707 92.2213 96.6821 122.375 74.0324Z" fill="#DFC0CB"/>
</g>
</g>
</g>
</svg>
